<svg xmlns="http://www.w3.org/2000/svg" xmlns:xlink="http://www.w3.org/1999/xlink" width="500" zoomAndPan="magnify" viewBox="0 0 375 374.999991" height="500" preserveAspectRatio="xMidYMid meet" version="1.0"><defs><g/><clipPath id="af217ed1ad"><path d="M 104.363281 104.363281 L 270.863281 104.363281 L 270.863281 270.863281 L 104.363281 270.863281 Z M 104.363281 104.363281 " clip-rule="nonzero"/></clipPath><clipPath id="3a5a5588b4"><path d="M 130.671875 130.671875 L 244.671875 130.671875 L 244.671875 244.671875 L 130.671875 244.671875 Z M 130.671875 130.671875 " clip-rule="nonzero"/></clipPath><clipPath id="b3abe0250b"><path d="M 117.839844 150.664062 L 257.339844 150.664062 L 257.339844 233.914062 L 117.839844 233.914062 Z M 117.839844 150.664062 " clip-rule="nonzero"/></clipPath><clipPath id="c36ee5f5e2"><path d="M 157 150.664062 L 218 150.664062 L 218 217 L 157 217 Z M 157 150.664062 " clip-rule="nonzero"/></clipPath></defs><rect x="-37.5" width="450" fill="#ffffff" y="-37.499999" height="449.999989" fill-opacity="1"/><rect x="-37.5" width="450" fill="#ffffff" y="-37.499999" height="449.999989" fill-opacity="1"/><rect x="-37.5" width="450" fill="#ffffff" y="-37.499999" height="449.999989" fill-opacity="1"/><g clip-path="url(#af217ed1ad)"><path fill="#000000" d="M 187.617188 104.363281 C 141.667969 104.363281 104.363281 141.667969 104.363281 187.617188 C 104.363281 233.5625 141.667969 270.867188 187.617188 270.867188 C 233.566406 270.867188 270.867188 233.5625 270.867188 187.617188 C 270.867188 141.667969 233.566406 104.363281 187.617188 104.363281 Z M 187.617188 104.902344 C 233.269531 104.902344 270.328125 141.964844 270.328125 187.617188 C 270.328125 233.265625 233.269531 270.332031 187.617188 270.332031 C 141.964844 270.332031 104.902344 233.265625 104.902344 187.617188 C 104.902344 141.964844 141.964844 104.902344 187.617188 104.902344 Z M 187.617188 104.902344 " fill-opacity="1" fill-rule="evenodd"/></g><g clip-path="url(#3a5a5588b4)"><path fill="#000000" d="M 187.675781 130.671875 C 156.214844 130.671875 130.671875 156.214844 130.671875 187.675781 C 130.671875 219.132812 156.214844 244.675781 187.675781 244.675781 C 219.132812 244.675781 244.675781 219.132812 244.675781 187.675781 C 244.675781 156.214844 219.132812 130.671875 187.675781 130.671875 Z M 187.675781 131.042969 C 218.929688 131.042969 244.308594 156.417969 244.308594 187.675781 C 244.308594 218.929688 218.929688 244.308594 187.675781 244.308594 C 156.417969 244.308594 131.042969 218.929688 131.042969 187.675781 C 131.042969 156.417969 156.417969 131.042969 187.675781 131.042969 Z M 187.675781 131.042969 " fill-opacity="1" fill-rule="evenodd"/></g><g clip-path="url(#b3abe0250b)"><path fill="#000000" d="M 187.589844 116.34375 C 149.09375 116.34375 117.839844 147.597656 117.839844 186.09375 C 117.839844 224.589844 149.09375 255.84375 187.589844 255.84375 C 226.089844 255.84375 257.34375 224.589844 257.34375 186.09375 C 257.34375 147.597656 226.089844 116.34375 187.589844 116.34375 Z M 187.589844 116.792969 C 225.839844 116.792969 256.890625 147.84375 256.890625 186.09375 C 256.890625 224.339844 225.839844 255.394531 187.589844 255.394531 C 149.34375 255.394531 118.289062 224.339844 118.289062 186.09375 C 118.289062 147.84375 149.34375 116.792969 187.589844 116.792969 Z M 187.589844 116.792969 " fill-opacity="1" fill-rule="evenodd"/></g><path fill="#000000" d="M 185.007812 180.664062 C 184.992188 180.664062 184.992188 180.6875 185.007812 180.6875 C 185.019531 180.6875 185.019531 180.664062 185.007812 180.664062 " fill-opacity="1" fill-rule="nonzero"/><g clip-path="url(#c36ee5f5e2)"><path fill="#000000" d="M 215.792969 208.433594 L 215.445312 207.992188 C 215.394531 207.933594 215.328125 207.925781 215.265625 207.949219 C 214.203125 207.285156 212.46875 207.546875 211.359375 207.527344 C 207.902344 207.46875 205.914062 207.183594 196.558594 206.605469 C 197.128906 205.792969 197.703125 204.855469 198.257812 203.773438 C 199.019531 204.136719 200.140625 203.992188 201.105469 203.789062 C 204.222656 204.601562 205.410156 205.890625 206.609375 207.257812 L 206.71875 207.167969 C 205.507812 205.582031 204.53125 204.535156 202.039062 203.578125 C 203.863281 203.148438 205.679688 202.414062 206.894531 200.988281 C 212.285156 202.175781 220.117188 205.039062 215.792969 208.433594 Z M 214.269531 210.1875 C 213.746094 210.359375 213.183594 210.304688 212.644531 210.226562 C 212.613281 210.207031 212.578125 210.183594 212.546875 210.15625 C 212.511719 210.171875 212.476562 210.1875 212.441406 210.199219 C 197.191406 208.179688 207.285156 209.152344 196.734375 208.269531 C 183.351562 207.148438 186.925781 211.125 179.074219 211.0625 C 176.949219 211.042969 174.847656 210.695312 172.835938 210.007812 C 171.84375 209.664062 170.875 209.257812 169.945312 208.761719 C 169.609375 208.582031 168.910156 208.269531 168.78125 207.894531 C 168.488281 207.066406 169.5625 206.722656 170.113281 206.742188 C 170.179688 206.742188 170.222656 206.691406 170.230469 206.636719 C 172.128906 206.355469 174.085938 206.511719 175.972656 206.828125 C 177.140625 207.023438 178.300781 207.289062 179.441406 207.613281 C 180.523438 207.917969 181.675781 208.539062 182.789062 208.625 C 183.007812 208.640625 183.144531 208.320312 182.972656 208.175781 C 181.925781 207.304688 178.257812 206.484375 177.394531 206.3125 C 176.261719 204.757812 175.097656 202.6875 174.136719 199.972656 C 174.074219 199.789062 174.007812 199.601562 173.945312 199.410156 C 172.542969 195.199219 171.632812 189.507812 172 181.894531 C 175.964844 184.304688 191.867188 185.027344 199.375 182.539062 C 200.039062 182.3125 200.585938 182.070312 200.996094 181.785156 C 200.792969 181.925781 201.078125 184.324219 201.078125 184.664062 C 201.089844 185.683594 201.074219 186.707031 201.03125 187.722656 C 200.945312 189.777344 200.753906 191.824219 200.414062 193.851562 C 199.789062 197.589844 198.679688 201.375 196.714844 204.625 C 196.570312 204.867188 195.703125 206.554688 195.4375 206.539062 C 190.5 206.28125 186.355469 206.175781 183.703125 208.507812 C 183.597656 208.601562 183.734375 208.746094 183.84375 208.691406 C 187.640625 206.878906 191.800781 206.976562 195.929688 207.296875 L 196.003906 207.355469 C 196.015625 207.339844 196.03125 207.324219 196.039062 207.308594 C 197.554688 207.425781 199.066406 207.574219 200.550781 207.660156 C 203.554688 207.847656 206.5625 208.027344 209.566406 208.195312 C 213.804688 208.4375 214.378906 207.871094 215.34375 209.082031 C 215.246094 209.585938 214.800781 210.011719 214.269531 210.1875 Z M 186.652344 209.902344 C 188.769531 208.929688 191.234375 208.867188 193.550781 208.976562 C 193.128906 209.113281 190.832031 210.097656 186.652344 209.902344 Z M 168.550781 206.449219 C 168.808594 205.96875 169.277344 205.515625 169.875 205.164062 C 170.46875 204.8125 171.230469 204.515625 172.210938 204.261719 C 173.011719 204.0625 173.855469 203.882812 174.71875 203.726562 L 174.726562 203.726562 C 175.171875 204.601562 175.628906 205.386719 176.089844 206.085938 C 175.960938 206.066406 175.835938 206.046875 175.707031 206.03125 C 173.644531 205.761719 171.363281 205.6875 169.402344 206.503906 C 168.960938 206.570312 168.53125 206.757812 168.292969 207.105469 C 168.34375 206.902344 168.421875 206.679688 168.550781 206.449219 Z M 199.542969 212.894531 C 181.179688 214.804688 158.503906 211.769531 158.179688 206.515625 C 158.179688 206.507812 158.179688 206.46875 158.175781 206.496094 C 158.136719 202.804688 169.429688 200.648438 173.191406 200.101562 C 173.582031 201.234375 174.011719 202.257812 174.457031 203.1875 C 173.640625 203.367188 172.839844 203.574219 172.082031 203.796875 C 171.078125 204.105469 170.296875 204.457031 169.6875 204.863281 C 169.0625 205.273438 168.582031 205.796875 168.332031 206.335938 C 168.097656 206.820312 168.054688 207.25 168.046875 207.570312 C 168.042969 207.691406 168.050781 207.789062 168.054688 207.863281 L 168.066406 208.007812 L 168.136719 208.003906 C 168.390625 208.976562 169.917969 209.632812 170.644531 210.003906 C 174.113281 211.769531 178.355469 212.453125 182.203125 211.800781 C 183.285156 211.621094 184.226562 211.148438 185.164062 210.65625 C 189.734375 211.214844 194.988281 209.996094 195.121094 209.070312 C 197.074219 209.195312 199.050781 209.300781 200.992188 209.5 C 203.738281 209.777344 204.480469 210.101562 210.535156 210.84375 C 207.148438 211.875 203.050781 212.523438 199.542969 212.894531 Z M 185.628906 215.617188 C 184.425781 215.601562 183.199219 215.558594 181.953125 215.488281 C 178.683594 215.308594 171.207031 214.636719 168.472656 212.839844 C 179.207031 215.191406 195.160156 215.382812 206.726562 212.847656 C 202.765625 215.421875 190.390625 215.679688 185.628906 215.617188 Z M 172.085938 180.34375 C 173.222656 179.484375 175.242188 179.054688 176.707031 178.789062 C 179.921875 178.191406 184.402344 178.019531 184.636719 178.039062 C 184.554688 178.761719 184.648438 179.476562 185.042969 180.179688 C 181.082031 180.289062 178.082031 180.84375 174.757812 181.746094 C 178.179688 181.054688 181.125 180.617188 185.269531 180.535156 C 185.273438 180.542969 185.277344 180.550781 185.285156 180.558594 C 185.476562 180.820312 185.957031 180.863281 186.089844 180.527344 C 190.234375 180.527344 193.089844 180.886719 196.683594 181.542969 C 193.183594 180.664062 190.1875 180.183594 186.183594 180.164062 C 186.347656 179.410156 186.597656 178.695312 186.90625 178.007812 C 192.800781 178.007812 199.40625 179.046875 200.742188 180.335938 C 200.964844 180.570312 200.917969 180.625 200.921875 180.636719 C 200.917969 180.648438 200.917969 180.664062 200.914062 180.683594 C 200.910156 180.707031 200.90625 180.742188 200.898438 180.730469 C 200.890625 180.726562 200.839844 180.828125 200.726562 180.925781 C 199.363281 182.136719 193.941406 182.597656 192.222656 182.722656 C 190.007812 182.859375 187.988281 182.953125 184.972656 182.917969 C 182.675781 182.894531 180.824219 182.785156 178.960938 182.589844 C 180.847656 182.007812 182.625 181.847656 183.957031 181.75 C 185.550781 181.636719 186.535156 181.582031 186.53125 181.503906 C 186.53125 181.449219 185.550781 181.355469 183.933594 181.328125 C 183.125 181.320312 182.152344 181.335938 181.070312 181.460938 C 179.882812 181.59375 177.367188 182.410156 177.367188 182.410156 C 176.242188 182.265625 172.808594 181.738281 172.058594 180.878906 C 172.074219 180.628906 172.082031 180.460938 172.085938 180.34375 Z M 187.332031 172.441406 C 187.371094 171.945312 187.34375 171.480469 187.265625 171.035156 C 187.277344 171.019531 187.285156 171.003906 187.300781 170.980469 C 187.359375 170.894531 187.433594 170.757812 187.519531 170.574219 C 187.691406 170.210938 187.855469 169.636719 187.871094 168.90625 C 187.886719 168.175781 187.742188 167.308594 187.414062 166.40625 C 187.089844 165.496094 186.585938 164.578125 186.09375 163.613281 C 185.601562 162.648438 185.175781 161.707031 185 160.800781 C 184.738281 159.4375 184.957031 157.859375 185.878906 156.933594 C 185.953125 156.867188 186.015625 156.804688 186.070312 156.753906 C 186.128906 156.703125 186.183594 156.667969 186.226562 156.636719 C 186.308594 156.570312 186.351562 156.539062 186.351562 156.539062 C 186.351562 156.539062 186.304688 156.566406 186.214844 156.621094 C 186.171875 156.652344 186.113281 156.679688 186.050781 156.726562 C 185.992188 156.777344 185.921875 156.832031 185.839844 156.894531 C 184.839844 157.738281 184.464844 159.351562 184.699219 160.855469 C 184.851562 161.820312 185.273438 162.804688 185.769531 163.777344 C 186.269531 164.753906 186.785156 165.652344 187.128906 166.515625 C 187.476562 167.378906 187.660156 168.207031 187.691406 168.90625 C 187.722656 169.613281 187.605469 170.183594 187.46875 170.554688 C 187.398438 170.738281 187.335938 170.882812 187.285156 170.972656 C 187.277344 170.992188 187.269531 171.007812 187.261719 171.019531 C 186.902344 169.015625 185.46875 167.480469 184.199219 165.839844 C 180.03125 160.453125 182.417969 156.097656 187.925781 152.054688 C 186.488281 158.019531 194.347656 160.617188 190.644531 170.410156 C 190.625 170.460938 190.632812 170.507812 190.648438 170.550781 C 189.0625 173.457031 186.640625 175.8125 185.578125 178.960938 C 185.175781 176.863281 187.164062 174.488281 187.332031 172.441406 Z M 201.972656 187.683594 C 202.480469 186.894531 203.328125 186.363281 204.328125 186.570312 C 205.4375 186.800781 205.945312 187.800781 206.183594 188.808594 C 207.171875 193.015625 205.800781 197.941406 201.703125 199.484375 C 201.171875 199.414062 200.632812 199.347656 200.082031 199.289062 C 201.0625 196.203125 201.785156 192.386719 201.972656 187.683594 Z M 199.882812 199.898438 C 199.894531 199.867188 199.90625 199.835938 199.914062 199.804688 C 200.039062 199.824219 200.164062 199.835938 200.289062 199.851562 C 200.15625 199.875 200.019531 199.886719 199.882812 199.898438 Z M 208.929688 186.304688 C 210.46875 191.125 208.757812 204.199219 198.746094 202.757812 C 198.851562 202.53125 198.953125 202.300781 199.054688 202.0625 C 202.199219 202.371094 205.09375 200.566406 206.234375 198.460938 C 206.457031 198.054688 206.535156 197.8125 206.507812 197.796875 C 206.476562 197.78125 206.332031 197.988281 206.0625 198.347656 C 204.578125 200.289062 202.003906 201.601562 199.355469 201.332031 C 199.445312 201.105469 199.535156 200.875 199.597656 200.703125 C 204.234375 201.097656 207.105469 196.035156 207.28125 191.921875 C 207.363281 189.976562 207.277344 186.988281 205.253906 186 C 204.070312 185.417969 202.773438 185.734375 202.007812 186.589844 C 202.007812 186.558594 202.007812 186.511719 202.007812 186.507812 C 202.925781 185.644531 204.308594 185.292969 205.640625 185.78125 C 206.132812 185.960938 206.496094 186.199219 206.738281 186.375 C 206.976562 186.554688 207.105469 186.667969 207.136719 186.644531 C 207.15625 186.625 207.082031 186.464844 206.878906 186.222656 C 205.800781 184.957031 203.746094 184.523438 202.023438 185.558594 C 202.023438 185.226562 202.023438 184.886719 202.019531 184.546875 C 203.984375 182.203125 207.714844 182.472656 208.929688 186.304688 Z M 217.816406 206.03125 C 217.269531 202.863281 210.414062 201.113281 207.316406 200.429688 C 208.234375 199.113281 209.761719 195.8125 210.195312 192.558594 C 211.628906 181.78125 204.738281 180.667969 202.003906 183.554688 C 201.996094 183.320312 201.972656 182.3125 201.890625 180.960938 C 201.871094 180.609375 201.851562 180.28125 201.855469 180.203125 C 201.855469 180.21875 201.851562 180.230469 201.851562 180.238281 L 201.636719 180.195312 C 201.5625 180.042969 201.4375 179.882812 201.277344 179.738281 C 199.054688 177.785156 189.90625 177.578125 187.128906 177.53125 C 188.269531 175.203125 189.96875 173.128906 190.941406 170.699219 C 190.996094 170.6875 191.042969 170.652344 191.070312 170.59375 C 195.71875 160.554688 185.835938 157.269531 189 151.710938 C 189.199219 151.363281 188.8125 150.667969 188.453125 150.921875 C 186.097656 152.617188 183.648438 154.402344 182.1875 156.984375 C 180.777344 159.476562 180.742188 161.867188 182.136719 164.40625 C 183.628906 167.128906 186.925781 169.316406 186.34375 172.773438 C 186.082031 174.308594 185.058594 175.929688 184.71875 177.535156 C 182.28125 177.558594 172.105469 177.945312 171.175781 180.234375 L 171.152344 180.238281 C 171.148438 180.230469 171.148438 180.21875 171.148438 180.203125 C 171.148438 180.226562 171.148438 180.265625 171.144531 180.320312 C 171.070312 180.5 171.011719 180.699219 171.054688 180.855469 C 170.617188 185.6875 170.996094 193.414062 173 199.539062 C 169.445312 200.027344 165.128906 200.863281 161.816406 202.242188 C 155.382812 204.953125 154.871094 209.347656 167.023438 212.5 C 168.238281 215.378906 178.699219 216.382812 181.886719 216.601562 C 194.339844 217.417969 206.835938 215.527344 208.1875 212.507812 C 208.1875 212.503906 208.191406 212.503906 208.191406 212.503906 C 209.902344 212.078125 211.429688 211.605469 212.746094 211.082031 C 214.078125 211.15625 215.359375 210.828125 215.757812 209.539062 C 217.027344 208.671875 218.082031 207.539062 217.816406 206.03125 " fill-opacity="1" fill-rule="nonzero"/></g><path fill="#000000" d="M 180.359375 162.675781 C 180.878906 166.335938 184.945312 169.675781 183.785156 172.9375 C 183.359375 170.457031 179.859375 169.933594 179.878906 165.21875 C 179.882812 164.335938 180.15625 163.511719 180.359375 162.675781 Z M 181.117188 170.390625 C 182.390625 171.679688 183.277344 172.554688 183.292969 174.449219 C 183.292969 174.191406 183.976562 173.796875 184.125 173.558594 C 184.402344 173.109375 184.503906 172.472656 184.554688 171.953125 C 184.660156 170.875 184.441406 169.777344 184.050781 168.777344 C 183.359375 166.976562 181.996094 165.929688 181.394531 164.085938 C 181.222656 163.558594 180.25 162.070312 180.4375 161.535156 C 180.050781 162.648438 179.6875 163.796875 179.449219 164.953125 C 179.074219 166.765625 179.742188 168.992188 181.117188 170.390625 " fill-opacity="1" fill-rule="nonzero"/><path fill="#000000" d="M 179.351562 209.941406 C 178.847656 209.921875 178.246094 209.863281 177.582031 209.789062 C 176.914062 209.703125 176.191406 209.589844 175.429688 209.433594 C 174.675781 209.273438 173.960938 209.09375 173.320312 208.902344 C 172.683594 208.703125 172.109375 208.511719 171.644531 208.320312 C 170.699219 207.953125 170.144531 207.648438 170.09375 207.726562 C 170.046875 207.785156 170.535156 208.230469 171.464844 208.714844 C 171.925781 208.964844 172.5 209.203125 173.148438 209.4375 C 173.800781 209.660156 174.53125 209.867188 175.308594 210.03125 C 176.089844 210.1875 176.839844 210.292969 177.527344 210.347656 C 178.214844 210.394531 178.835938 210.410156 179.355469 210.371094 C 180.402344 210.3125 181.027344 210.121094 181.011719 210.039062 C 181 209.953125 180.367188 209.988281 179.351562 209.941406 " fill-opacity="1" fill-rule="nonzero"/><path fill="#000000" d="M 195.527344 204.59375 C 195.316406 205.082031 195.203125 205.351562 195.203125 205.351562 C 195.203125 205.351562 195.335938 205.089844 195.578125 204.617188 C 195.640625 204.5 195.707031 204.367188 195.78125 204.222656 C 197.117188 201.46875 198.003906 198.351562 198.554688 195.382812 C 199.144531 192.109375 199.472656 188.226562 199.605469 184.890625 C 199.136719 188.914062 198.8125 191.914062 198.199219 195.316406 C 197.621094 198.4375 196.789062 201.691406 195.527344 204.59375 " fill-opacity="1" fill-rule="nonzero"/><path fill="#000000" d="M 196.890625 196.140625 C 197.304688 193.519531 197.511719 191.121094 197.625 189.390625 C 197.742188 187.65625 197.773438 186.582031 197.773438 186.582031 C 197.773438 186.582031 197.648438 187.648438 197.449219 189.371094 C 197.242188 191.097656 196.945312 193.472656 196.535156 196.085938 C 196.003906 199.457031 195.339844 202.660156 194.816406 204.738281 C 194.703125 205.210938 194.640625 205.472656 194.640625 205.472656 C 194.640625 205.472656 194.722656 205.21875 194.871094 204.753906 C 195.613281 202.480469 196.394531 199.300781 196.890625 196.140625 " fill-opacity="1" fill-rule="nonzero"/><path fill="#000000" d="M 173.15625 189.644531 C 172.953125 187.960938 172.894531 186.367188 172.847656 184.808594 C 172.789062 186.453125 172.765625 187.96875 172.910156 189.667969 C 173.15625 193.871094 174.421875 198.625 175.695312 201.648438 C 176.125 202.746094 176.886719 204.371094 177.375 205.269531 C 177.636719 205.757812 177.785156 206.03125 177.785156 206.03125 C 177.785156 206.03125 177.65625 205.75 177.425781 205.242188 C 175.40625 200.921875 173.636719 194.710938 173.15625 189.644531 " fill-opacity="1" fill-rule="nonzero"/><path fill="#000000" d="M 209.101562 205.96875 C 208.671875 204.902344 207.742188 203.996094 206.625 203.609375 C 206.300781 203.496094 206.164062 203.476562 205.929688 203.433594 C 206.179688 203.566406 206.253906 203.59375 206.546875 203.773438 C 206.917969 203.996094 207.398438 204.34375 207.863281 204.785156 C 208.332031 205.234375 208.699219 205.695312 208.941406 206.054688 C 209.132812 206.34375 209.167969 206.410156 209.3125 206.660156 C 209.3125 206.660156 209.296875 206.589844 209.265625 206.472656 C 209.238281 206.347656 209.183594 206.179688 209.101562 205.96875 " fill-opacity="1" fill-rule="nonzero"/><path fill="#000000" d="M 196.0625 190.960938 C 195.171875 196.890625 194.675781 199.699219 193.492188 205.566406 C 194.890625 201.226562 195.898438 195.460938 196.0625 190.960938 " fill-opacity="1" fill-rule="nonzero"/><path fill="#000000" d="M 186.21875 185.359375 C 187.316406 185.394531 188.527344 185.382812 189.796875 185.296875 C 191.0625 185.203125 192.261719 185.042969 193.347656 184.855469 C 193.886719 184.753906 194.402344 184.660156 194.875 184.546875 C 195.355469 184.445312 195.796875 184.332031 196.195312 184.226562 C 196.601562 184.125 196.957031 184.011719 197.277344 183.917969 C 197.59375 183.828125 197.863281 183.738281 198.082031 183.664062 C 198.519531 183.515625 198.765625 183.433594 198.765625 183.433594 C 198.765625 183.433594 198.515625 183.496094 198.066406 183.609375 C 197.84375 183.667969 197.566406 183.738281 197.246094 183.808594 C 196.925781 183.878906 196.5625 183.96875 196.15625 184.046875 C 194.113281 184.472656 192.050781 184.765625 189.769531 184.933594 C 188.515625 185.019531 187.316406 185.050781 186.222656 185.054688 C 185.679688 185.046875 185.160156 185.046875 184.675781 185.023438 C 183.160156 184.984375 181.695312 184.828125 180.65625 184.71875 C 182 184.96875 183.234375 185.171875 184.660156 185.273438 C 185.148438 185.316406 185.667969 185.335938 186.21875 185.359375 " fill-opacity="1" fill-rule="nonzero"/><path fill="#000000" d="M 188.664062 162.472656 C 189.117188 163.070312 189.628906 163.992188 189.863281 165.101562 C 190.097656 166.210938 190.007812 167.261719 189.835938 167.992188 C 189.75 168.359375 189.652344 168.652344 189.578125 168.855469 C 189.5 169.050781 189.457031 169.164062 189.457031 169.164062 C 189.457031 169.164062 189.523438 169.0625 189.628906 168.878906 C 189.738281 168.691406 189.875 168.410156 190.007812 168.046875 C 190.273438 167.320312 190.46875 166.210938 190.21875 165.027344 C 189.964844 163.839844 189.339844 162.90625 188.800781 162.355469 C 188.535156 162.074219 188.292969 161.875 188.117188 161.75 C 187.945312 161.621094 187.84375 161.558594 187.84375 161.558594 C 187.84375 161.558594 187.929688 161.644531 188.082031 161.792969 C 188.230469 161.941406 188.4375 162.171875 188.664062 162.472656 " fill-opacity="1" fill-rule="nonzero"/><path fill="#000000" d="M 182.535156 169.933594 C 181.46875 168.851562 180.769531 167.636719 180.539062 165.800781 C 180.257812 167.410156 180.902344 169.054688 182.535156 169.933594 " fill-opacity="1" fill-rule="nonzero"/><g fill="#000000" fill-opacity="1"><g transform="translate(141.157219, 141.09172)"><g><path d="M 2.9375 -2.78125 L 2.203125 -2.078125 L -4.109375 -6.515625 L 1.0625 -0.984375 L 0.390625 -0.359375 L -6.09375 -7.296875 L -5.015625 -8.3125 L 1.296875 -3.84375 L -2.765625 -10.40625 L -1.6875 -11.421875 L 4.796875 -4.484375 L 4.046875 -3.78125 L -1.171875 -9.359375 Z M 2.9375 -2.78125 "/></g></g></g><g fill="#000000" fill-opacity="1"><g transform="translate(148.663263, 134.441007)"><g><path d="M 0.234375 -2.5 L 1.03125 -0.71875 L 0.21875 -0.15625 L -3.703125 -9 L -2.4375 -9.875 L 4.46875 -3.09375 L 3.609375 -2.5 L 2.203125 -3.859375 Z M -0.171875 -3.328125 L 1.578125 -4.53125 L -2.4375 -8.421875 Z M -0.171875 -3.328125 "/></g></g></g><g fill="#000000" fill-opacity="1"><g transform="translate(155.92751, 129.656981)"><g><path d="M -1.984375 -9.671875 C -1.316406 -10.015625 -0.75 -10.097656 -0.28125 -9.921875 C 0.1875 -9.742188 0.582031 -9.335938 0.90625 -8.703125 L 1.25 -8.03125 C 1.488281 -7.550781 1.597656 -7.125 1.578125 -6.75 C 1.554688 -6.375 1.394531 -6.035156 1.09375 -5.734375 C 1.539062 -5.816406 1.921875 -5.75 2.234375 -5.53125 C 2.554688 -5.3125 2.832031 -4.972656 3.0625 -4.515625 L 3.75 -3.203125 C 3.84375 -3.015625 3.941406 -2.835938 4.046875 -2.671875 C 4.148438 -2.515625 4.28125 -2.382812 4.4375 -2.28125 L 3.46875 -1.78125 C 3.351562 -1.882812 3.25 -1.992188 3.15625 -2.109375 C 3.0625 -2.234375 2.941406 -2.441406 2.796875 -2.734375 L 2.125 -4.046875 C 1.875 -4.535156 1.59375 -4.8125 1.28125 -4.875 C 0.976562 -4.945312 0.625 -4.882812 0.21875 -4.6875 L -0.421875 -4.34375 L 1.4375 -0.734375 L 0.484375 -0.25 L -3.859375 -8.703125 Z M -0.171875 -5.5625 C 0.210938 -5.757812 0.46875 -5.988281 0.59375 -6.25 C 0.726562 -6.507812 0.675781 -6.867188 0.4375 -7.328125 L 0.015625 -8.140625 C -0.179688 -8.523438 -0.40625 -8.78125 -0.65625 -8.90625 C -0.90625 -9.03125 -1.207031 -9 -1.5625 -8.8125 L -2.46875 -8.34375 L -0.859375 -5.203125 Z M -0.171875 -5.5625 "/></g></g></g><g fill="#000000" fill-opacity="1"><g transform="translate(163.432709, 126.025694)"><g><path d="M 1.875 -6.328125 L 2.203125 -5.421875 L 0.03125 -4.625 L 1.1875 -1.453125 L 3.859375 -2.421875 L 4.1875 -1.515625 L 0.515625 -0.1875 L -2.734375 -9.109375 L 0.9375 -10.4375 L 1.265625 -9.546875 L -1.40625 -8.578125 L -0.296875 -5.53125 Z M 1.875 -6.328125 "/></g></g></g><g fill="#000000" fill-opacity="1"><g transform="translate(170.912585, 123.505144)"><g><path d="M 0.53125 -0.125 L -1.625 -9.375 L -0.59375 -9.609375 L 1.34375 -1.296875 L 3.984375 -1.921875 L 4.203125 -0.984375 Z M 0.53125 -0.125 "/></g></g></g><g fill="#000000" fill-opacity="1"><g transform="translate(178.317393, 121.937682)"><g><path d="M 1.859375 -3.625 L -0.78125 -9.46875 L 0.3125 -9.59375 L 2.28125 -5.09375 L 3.265625 -9.90625 L 4.265625 -10 L 2.890625 -3.734375 L 3.25 -0.34375 L 2.21875 -0.234375 Z M 1.859375 -3.625 "/></g></g></g><g fill="#000000" fill-opacity="1"><g transform="translate(186.850863, 121.292918)"><g><path d="M 1.546875 -9.5 L 1.390625 -6.9375 L 0.65625 -6.9375 L 0.53125 -9.5 Z M 1.546875 -9.5 "/></g></g></g><g fill="#000000" fill-opacity="1"><g transform="translate(191.963659, 121.377481)"><g><path d="M 3.515625 -9.28125 C 4.234375 -9.207031 4.738281 -8.9375 5.03125 -8.46875 C 5.332031 -8.007812 5.445312 -7.421875 5.375 -6.703125 L 5.34375 -6.453125 L 4.359375 -6.5625 L 4.390625 -6.875 C 4.429688 -7.289062 4.378906 -7.625 4.234375 -7.875 C 4.085938 -8.132812 3.820312 -8.285156 3.4375 -8.328125 C 3.0625 -8.367188 2.773438 -8.273438 2.578125 -8.046875 C 2.378906 -7.828125 2.257812 -7.515625 2.21875 -7.109375 C 2.1875 -6.753906 2.234375 -6.4375 2.359375 -6.15625 C 2.484375 -5.875 2.648438 -5.609375 2.859375 -5.359375 C 3.078125 -5.117188 3.3125 -4.878906 3.5625 -4.640625 C 3.820312 -4.398438 4.054688 -4.140625 4.265625 -3.859375 C 4.484375 -3.585938 4.648438 -3.285156 4.765625 -2.953125 C 4.878906 -2.617188 4.914062 -2.226562 4.875 -1.78125 C 4.800781 -1.0625 4.566406 -0.503906 4.171875 -0.109375 C 3.785156 0.273438 3.226562 0.429688 2.5 0.359375 C 1.769531 0.273438 1.253906 0.00390625 0.953125 -0.453125 C 0.660156 -0.910156 0.550781 -1.5 0.625 -2.21875 L 0.6875 -2.765625 L 1.6875 -2.671875 L 1.625 -2.078125 C 1.570312 -1.640625 1.617188 -1.296875 1.765625 -1.046875 C 1.921875 -0.796875 2.191406 -0.65625 2.578125 -0.625 C 2.953125 -0.582031 3.238281 -0.664062 3.4375 -0.875 C 3.644531 -1.082031 3.773438 -1.40625 3.828125 -1.84375 C 3.859375 -2.1875 3.804688 -2.492188 3.671875 -2.765625 C 3.546875 -3.046875 3.378906 -3.3125 3.171875 -3.5625 C 2.960938 -3.8125 2.726562 -4.050781 2.46875 -4.28125 C 2.21875 -4.507812 1.988281 -4.765625 1.78125 -5.046875 C 1.582031 -5.328125 1.421875 -5.632812 1.296875 -5.96875 C 1.171875 -6.3125 1.132812 -6.703125 1.1875 -7.140625 C 1.257812 -7.867188 1.484375 -8.425781 1.859375 -8.8125 C 2.242188 -9.195312 2.796875 -9.351562 3.515625 -9.28125 Z M 3.515625 -9.28125 "/></g></g></g><g fill="#000000" fill-opacity="1"><g transform="translate(205.037721, 123.577039)"><g><path d="M 5.390625 -8.34375 C 6.085938 -8.125 6.535156 -7.753906 6.734375 -7.234375 C 6.941406 -6.722656 6.929688 -6.117188 6.703125 -5.421875 L 6.453125 -4.625 L 5.5 -4.921875 L 5.78125 -5.78125 C 5.90625 -6.195312 5.921875 -6.546875 5.828125 -6.828125 C 5.734375 -7.117188 5.503906 -7.320312 5.140625 -7.4375 C 4.773438 -7.550781 4.460938 -7.519531 4.203125 -7.34375 C 3.953125 -7.175781 3.765625 -6.882812 3.640625 -6.46875 L 2.109375 -1.671875 C 1.972656 -1.265625 1.957031 -0.914062 2.0625 -0.625 C 2.164062 -0.34375 2.398438 -0.144531 2.765625 -0.03125 C 3.128906 0.0820312 3.429688 0.0546875 3.671875 -0.109375 C 3.921875 -0.285156 4.113281 -0.578125 4.25 -0.984375 L 4.625 -2.15625 L 5.578125 -1.859375 L 5.21875 -0.75 C 4.988281 -0.0507812 4.640625 0.445312 4.171875 0.75 C 3.710938 1.0625 3.132812 1.109375 2.4375 0.890625 C 1.738281 0.660156 1.289062 0.289062 1.09375 -0.21875 C 0.90625 -0.738281 0.925781 -1.347656 1.15625 -2.046875 L 2.640625 -6.71875 C 2.753906 -7.0625 2.894531 -7.363281 3.0625 -7.625 C 3.238281 -7.882812 3.441406 -8.085938 3.671875 -8.234375 C 3.898438 -8.378906 4.15625 -8.460938 4.4375 -8.484375 C 4.726562 -8.503906 5.046875 -8.457031 5.390625 -8.34375 Z M 5.390625 -8.34375 "/></g></g></g><g fill="#000000" fill-opacity="1"><g transform="translate(212.729694, 126.223152)"><g><path d="M 2.265625 -1.046875 L 1.125 0.53125 L 0.234375 0.109375 L 5.9375 -7.703125 L 7.328125 -7.046875 L 4.921875 2.3125 L 3.96875 1.875 L 4.453125 -0.03125 Z M 2.78125 -1.8125 L 4.703125 -0.90625 L 6.078125 -6.328125 Z M 2.78125 -1.8125 "/></g></g></g><g fill="#000000" fill-opacity="1"><g transform="translate(220.515688, 130.13584)"><g><path d="M 5.90625 -2.25 L 5.390625 -1.4375 L 3.5625 -2.609375 L 1.359375 0.859375 L 0.46875 0.296875 L 5.5625 -7.71875 L 8.734375 -5.703125 L 8.21875 -4.90625 L 5.9375 -6.359375 L 4.078125 -3.421875 Z M 5.90625 -2.25 "/></g></g></g><g fill="#000000" fill-opacity="1"><g transform="translate(226.853183, 134.370112)"><g><path d="M 10.21875 -6.40625 L 8.359375 -6.125 L 7.78125 -6.59375 L 9.40625 -7.078125 Z M 6.390625 -1.609375 L 5.78125 -0.875 L 4 -2.34375 L 1.859375 0.265625 L 4.046875 2.078125 L 3.4375 2.828125 L 0.421875 0.34375 L 6.4375 -7 L 9.453125 -4.515625 L 8.859375 -3.78125 L 6.671875 -5.59375 L 4.609375 -3.078125 Z M 6.390625 -1.609375 "/></g></g></g><g fill="#000000" fill-opacity="1"><g transform="translate(232.855332, 139.578204)"><g/></g></g><g fill="#000000" fill-opacity="1"><g transform="translate(153.96273, 251.291284)"><g><path d="M 5.859375 -3.015625 L 5.4375 -2.15625 L 3.359375 -3.171875 L 1.875 -0.15625 L 4.421875 1.109375 L 3.984375 1.984375 L 0.484375 0.25 L 4.703125 -8.265625 L 8.203125 -6.53125 L 7.78125 -5.671875 L 5.234375 -6.9375 L 3.78125 -4.03125 Z M 5.859375 -3.015625 "/></g></g></g><g fill="#000000" fill-opacity="1"><g transform="translate(161.811741, 254.925763)"><g><path d="M 5.578125 -8.21875 C 6.253906 -7.976562 6.679688 -7.597656 6.859375 -7.078125 C 7.046875 -6.566406 7.019531 -5.96875 6.78125 -5.28125 L 6.6875 -5.046875 L 5.75 -5.375 L 5.859375 -5.671875 C 5.992188 -6.078125 6.019531 -6.421875 5.9375 -6.703125 C 5.863281 -6.984375 5.644531 -7.1875 5.28125 -7.3125 C 4.925781 -7.4375 4.625 -7.414062 4.375 -7.25 C 4.132812 -7.082031 3.945312 -6.800781 3.8125 -6.40625 C 3.695312 -6.070312 3.664062 -5.753906 3.71875 -5.453125 C 3.78125 -5.148438 3.882812 -4.851562 4.03125 -4.5625 C 4.175781 -4.28125 4.34375 -3.988281 4.53125 -3.6875 C 4.726562 -3.394531 4.898438 -3.085938 5.046875 -2.765625 C 5.191406 -2.453125 5.28125 -2.117188 5.3125 -1.765625 C 5.351562 -1.410156 5.300781 -1.023438 5.15625 -0.609375 C 4.914062 0.078125 4.5625 0.566406 4.09375 0.859375 C 3.625 1.148438 3.046875 1.175781 2.359375 0.9375 C 1.660156 0.6875 1.21875 0.300781 1.03125 -0.21875 C 0.851562 -0.738281 0.882812 -1.34375 1.125 -2.03125 L 1.3125 -2.546875 L 2.25 -2.21875 L 2.046875 -1.65625 C 1.898438 -1.238281 1.867188 -0.890625 1.953125 -0.609375 C 2.046875 -0.328125 2.273438 -0.125 2.640625 0 C 2.992188 0.125 3.296875 0.109375 3.546875 -0.046875 C 3.796875 -0.210938 3.992188 -0.503906 4.140625 -0.921875 C 4.253906 -1.242188 4.28125 -1.550781 4.21875 -1.84375 C 4.164062 -2.144531 4.0625 -2.4375 3.90625 -2.71875 C 3.757812 -3.007812 3.585938 -3.300781 3.390625 -3.59375 C 3.203125 -3.882812 3.039062 -4.1875 2.90625 -4.5 C 2.769531 -4.820312 2.679688 -5.160156 2.640625 -5.515625 C 2.597656 -5.867188 2.648438 -6.253906 2.796875 -6.671875 C 3.035156 -7.367188 3.390625 -7.859375 3.859375 -8.140625 C 4.328125 -8.429688 4.898438 -8.457031 5.578125 -8.21875 Z M 5.578125 -8.21875 "/></g></g></g><g fill="#000000" fill-opacity="1"><g transform="translate(170.205442, 257.611886)"><g><path d="M 1.875 0.40625 L 3.6875 -7.953125 L 1.984375 -8.328125 L 2.1875 -9.25 L 6.640625 -8.28125 L 6.4375 -7.359375 L 4.734375 -7.734375 L 2.921875 0.625 Z M 1.875 0.40625 "/></g></g></g><g fill="#000000" fill-opacity="1"><g transform="translate(178.682274, 259.179404)"><g/></g></g><g fill="#000000" fill-opacity="1"><g transform="translate(184.468142, 259.713237)"><g><path d="M 2.734375 -9.578125 C 3.472656 -9.566406 4.015625 -9.34375 4.359375 -8.90625 C 4.703125 -8.476562 4.867188 -7.898438 4.859375 -7.171875 C 4.859375 -6.691406 4.773438 -6.257812 4.609375 -5.875 C 4.453125 -5.488281 4.253906 -5.128906 4.015625 -4.796875 C 3.773438 -4.460938 3.515625 -4.15625 3.234375 -3.875 C 2.960938 -3.59375 2.703125 -3.304688 2.453125 -3.015625 C 2.210938 -2.722656 2.007812 -2.421875 1.84375 -2.109375 C 1.6875 -1.796875 1.601562 -1.457031 1.59375 -1.09375 L 1.59375 -0.953125 L 4.71875 -0.9375 L 4.71875 0.03125 L 0.546875 0 L 0.546875 -0.8125 C 0.554688 -1.320312 0.640625 -1.769531 0.796875 -2.15625 C 0.953125 -2.550781 1.148438 -2.90625 1.390625 -3.21875 C 1.640625 -3.53125 1.898438 -3.828125 2.171875 -4.109375 C 2.453125 -4.398438 2.710938 -4.691406 2.953125 -4.984375 C 3.191406 -5.285156 3.394531 -5.601562 3.5625 -5.9375 C 3.726562 -6.28125 3.8125 -6.675781 3.8125 -7.125 C 3.8125 -7.613281 3.726562 -7.988281 3.5625 -8.25 C 3.394531 -8.507812 3.109375 -8.640625 2.703125 -8.640625 C 2.316406 -8.640625 2.03125 -8.507812 1.84375 -8.25 C 1.664062 -8 1.578125 -7.660156 1.578125 -7.234375 L 1.578125 -6.390625 L 0.59375 -6.40625 L 0.59375 -7.1875 C 0.601562 -7.914062 0.78125 -8.492188 1.125 -8.921875 C 1.46875 -9.359375 2.003906 -9.578125 2.734375 -9.578125 Z M 2.734375 -9.578125 "/></g></g></g><g fill="#000000" fill-opacity="1"><g transform="translate(193.49631, 259.534608)"><g><path d="M -0.40625 -7.21875 C -0.488281 -7.945312 -0.378906 -8.546875 -0.078125 -9.015625 C 0.210938 -9.484375 0.726562 -9.757812 1.46875 -9.84375 C 2.1875 -9.9375 2.75 -9.789062 3.15625 -9.40625 C 3.570312 -9.019531 3.820312 -8.460938 3.90625 -7.734375 L 4.5 -2.875 C 4.59375 -2.132812 4.484375 -1.53125 4.171875 -1.0625 C 3.867188 -0.59375 3.359375 -0.3125 2.640625 -0.21875 C 1.898438 -0.132812 1.328125 -0.285156 0.921875 -0.671875 C 0.523438 -1.054688 0.28125 -1.617188 0.1875 -2.359375 Z M 1.21875 -2.40625 C 1.269531 -1.976562 1.398438 -1.65625 1.609375 -1.4375 C 1.828125 -1.226562 2.128906 -1.144531 2.515625 -1.1875 C 2.890625 -1.238281 3.15625 -1.390625 3.3125 -1.640625 C 3.46875 -1.898438 3.519531 -2.242188 3.46875 -2.671875 L 2.859375 -7.671875 C 2.804688 -8.097656 2.671875 -8.421875 2.453125 -8.640625 C 2.242188 -8.867188 1.953125 -8.957031 1.578125 -8.90625 C 1.191406 -8.863281 0.921875 -8.707031 0.765625 -8.4375 C 0.609375 -8.175781 0.554688 -7.832031 0.609375 -7.40625 Z M 1.21875 -2.40625 "/></g></g></g><g fill="#000000" fill-opacity="1"><g transform="translate(202.454844, 258.202801)"><g><path d="M 0.234375 -9.953125 C 0.953125 -10.140625 1.53125 -10.066406 1.96875 -9.734375 C 2.40625 -9.398438 2.71875 -8.878906 2.90625 -8.171875 C 3.019531 -7.703125 3.046875 -7.257812 2.984375 -6.84375 C 2.921875 -6.4375 2.816406 -6.039062 2.671875 -5.65625 C 2.523438 -5.269531 2.347656 -4.90625 2.140625 -4.5625 C 1.941406 -4.21875 1.765625 -3.875 1.609375 -3.53125 C 1.453125 -3.195312 1.332031 -2.859375 1.25 -2.515625 C 1.175781 -2.171875 1.1875 -1.820312 1.28125 -1.46875 L 1.3125 -1.328125 L 4.34375 -2.09375 L 4.578125 -1.15625 L 0.53125 -0.140625 L 0.328125 -0.921875 C 0.203125 -1.421875 0.164062 -1.878906 0.21875 -2.296875 C 0.28125 -2.710938 0.390625 -3.101562 0.546875 -3.46875 C 0.703125 -3.832031 0.875 -4.1875 1.0625 -4.53125 C 1.257812 -4.875 1.4375 -5.21875 1.59375 -5.5625 C 1.757812 -5.914062 1.878906 -6.273438 1.953125 -6.640625 C 2.023438 -7.015625 2.003906 -7.421875 1.890625 -7.859375 C 1.773438 -8.328125 1.601562 -8.664062 1.375 -8.875 C 1.144531 -9.082031 0.832031 -9.140625 0.4375 -9.046875 C 0.0625 -8.941406 -0.175781 -8.742188 -0.28125 -8.453125 C -0.394531 -8.160156 -0.398438 -7.8125 -0.296875 -7.40625 L -0.09375 -6.578125 L -1.046875 -6.34375 L -1.234375 -7.109375 C -1.410156 -7.816406 -1.382812 -8.421875 -1.15625 -8.921875 C -0.9375 -9.429688 -0.472656 -9.773438 0.234375 -9.953125 Z M 0.234375 -9.953125 "/></g></g></g><g fill="#000000" fill-opacity="1"><g transform="translate(211.14412, 255.748372)"><g><path d="M -1.09375 -9.890625 C -0.414062 -10.148438 0.164062 -10.144531 0.65625 -9.875 C 1.144531 -9.613281 1.523438 -9.140625 1.796875 -8.453125 L 1.875 -8.234375 C 2.050781 -7.773438 2.109375 -7.351562 2.046875 -6.96875 C 1.992188 -6.59375 1.816406 -6.269531 1.515625 -6 C 1.953125 -6 2.316406 -5.875 2.609375 -5.625 C 2.898438 -5.375 3.132812 -5.023438 3.3125 -4.578125 L 3.59375 -3.90625 C 3.863281 -3.21875 3.910156 -2.601562 3.734375 -2.0625 C 3.566406 -1.53125 3.144531 -1.132812 2.46875 -0.875 C 1.789062 -0.601562 1.207031 -0.609375 0.71875 -0.890625 C 0.238281 -1.171875 -0.128906 -1.648438 -0.390625 -2.328125 L -0.625 -2.921875 L 0.296875 -3.296875 L 0.546875 -2.625 C 0.710938 -2.226562 0.921875 -1.945312 1.171875 -1.78125 C 1.421875 -1.625 1.722656 -1.617188 2.078125 -1.765625 C 2.441406 -1.910156 2.660156 -2.128906 2.734375 -2.421875 C 2.804688 -2.710938 2.753906 -3.082031 2.578125 -3.53125 L 2.3125 -4.203125 C 1.976562 -5.054688 1.441406 -5.351562 0.703125 -5.09375 L 0.15625 -4.890625 L -0.203125 -5.78125 L 0.390625 -6 C 0.710938 -6.144531 0.925781 -6.351562 1.03125 -6.625 C 1.132812 -6.90625 1.113281 -7.238281 0.96875 -7.625 L 0.796875 -8.03125 C 0.617188 -8.488281 0.398438 -8.800781 0.140625 -8.96875 C -0.109375 -9.132812 -0.414062 -9.144531 -0.78125 -9 C -1.132812 -8.851562 -1.347656 -8.632812 -1.421875 -8.34375 C -1.492188 -8.0625 -1.453125 -7.710938 -1.296875 -7.296875 L -1.109375 -6.859375 L -2.03125 -6.484375 L -2.1875 -6.875 C -2.457031 -7.5625 -2.515625 -8.164062 -2.359375 -8.6875 C -2.203125 -9.21875 -1.78125 -9.617188 -1.09375 -9.890625 Z M -1.09375 -9.890625 "/></g></g></g><g fill="#000000" fill-opacity="1"><g transform="translate(219.366296, 252.204192)"><g/></g></g></svg>